{
  "accessors": [
    {
      "bufferView": 0,
      "byteOffset": 0,
      "componentType": 5125,
      "normalized": false,
      "count": 24,
      "type": "SCALAR",
      "max": [
        8
      ],
      "min": [
        0
      ]
    },
    {
      "bufferView": 1,
      "byteOffset": 0,
      "componentType": 5126,
      "normalized": false,
      "count": 9,
      "type": "VEC3",
      "max": [
        2.0,
        2.0,
        5.0
      ],
      "min": [
        0.0,
        0.0,
        4.0
      ]
    },
    {
      "bufferView": 2,
      "byteOffset": 0,
      "componentType": 5126,
      "normalized": false,
      "count": 9,
      "type": "VEC4",
      "max": [
        0.3799999952316284,
        0.7300000190734863,
        0.7799999713897705,
        1.0
      ],
      "min": [
        0.3799999952316284,
        0.7300000190734863,
        0.7799999713897705,
        1.0
      ]
    },
    {
      "bufferView": 3,
      "byteOffset": 0,
      "componentType": 5125,
      "normalized": false,
      "count": 24,
      "type": "SCALAR",
      "max": [
        8
      ],
      "min": [
        0
      ]
    },
    {
      "bufferView": 4,
      "byteOffset": 0,
      "componentType": 5126,
      "normalized": false,
      "count": 9,
      "type": "VEC3",
      "max": [
        2.0,
        2.0,
        0.009999999776482582
      ],
      "min": [
        0.0,
        0.0,
        0.009999999776482582
      ]
    },
    {
      "bufferView": 5,
      "byteOffset": 0,
      "componentType": 5126,
      "normalized": false,
      "count": 9,
      "type": "VEC4",
      "max": [
        1.0,
        1.0,
        1.0,
        1.0
      ],
      "min": [
        1.0,
        1.0,
        1.0,
        1.0
      ]
    },
    {
      "bufferView": 1,
      "byteOffset": 108,
      "componentType": 5126,
      "normalized": false,
      "count": 9,
      "type": "VEC3",
      "max": [
        0.0,
        0.0,
        1.0
      ],
      "min": [
        0.0,
        0.0,
        -1.0
      ]
    },
    {
      "bufferView": 1,
      "byteOffset": 216,
      "componentType": 5126,
      "normalized": false,
      "count": 9,
      "type": "VEC3",
      "max": [
        0.0,
        0.0,
        1.0
      ],
      "min": [
        0.0,
        0.0,
        -1.0
      ]
    },
    {
      "bufferView": 1,
      "byteOffset": 324,
      "componentType": 5126,
      "normalized": false,
      "count": 9,
      "type": "VEC3",
      "max": [
        0.0,
        0.0,
        1.0
      ],
      "min": [
        0.0,
        0.0,
        -1.0
      ]
    },
    {
      "bufferView": 1,
      "byteOffset": 432,
      "componentType": 5126,
      "normalized": false,
      "count": 9,
      "type": "VEC3",
      "max": [
        0.0,
        0.0,
        1.0
      ],
      "min": [
        0.0,
        0.0,
        -1.0
      ]
    },
    {
      "bufferView": 6,
      "byteOffset": 0,
      "componentType": 5126,
      "normalized": false,
      "count": 4,
      "type": "SCALAR",
      "max": [
        3
      ],
      "min": [
        0
      ]
    },
    {
      "bufferView": 7,
      "byteOffset": 0,
      "componentType": 5126,
      "normalized": false,
      "count": 16,
      "type": "SCALAR",
      "max": [
        1
      ],
      "min": [
        0
      ]
    }
  ],
  "animations": [
    {
      "channels": [
        {
          "sampler": 0,
          "target": {
            "node": 0,
            "path": "weights"
          }
        }
      ],
      "samplers": [
        {
          "input": 10,
          "interpolation": "LINEAR",
          "output": 11
        }
      ]
    }
  ],
  "asset": {
    "generator": "pygltflib@v1.15.5",
    "version": "2.0"
  },
  "bufferViews": [
    {
      "buffer": 0,
      "byteOffset": 0,
      "byteLength": 96,
      "target": 34963
    },
    {
      "buffer": 0,
      "byteOffset": 96,
      "byteLength": 540,
      "byteStride": 12,
      "target": 34962
    },
    {
      "buffer": 1,
      "byteOffset": 0,
      "byteLength": 144
    },
    {
      "buffer": 3,
      "byteOffset": 0,
      "byteLength": 96,
      "target": 34963
    },
    {
      "buffer": 3,
      "byteOffset": 96,
      "byteLength": 108,
      "byteStride": 12,
      "target": 34962
    },
    {
      "buffer": 4,
      "byteOffset": 0,
      "byteLength": 144,
      "byteStride": 16,
      "target": 34962
    },
    {
      "buffer": 2,
      "byteOffset": 0,
      "byteLength": 16
    },
    {
      "buffer": 2,
      "byteOffset": 16,
      "byteLength": 64
    }
  ],
  "buffers": [
    {
      "uri": "data:application/octet-stream;base64,",
      "byteLength": 636
    },
    {
      "uri": "data:application/octet-stream;base64,",
      "byteLength": 144
    },
    {
      "uri": "data:application/octet-stream;base64,",
      "byteLength": 80
    },
    {
      "uri": "data:application/octet-stream;base64,",
      "byteLength": 204
    },
    {
      "uri": "data:application/octet-stream;base64,",
      "byteLength": 144
    }
  ],
  "meshes": [
    {
      "primitives": [
        {
          "attributes": {
            "POSITION": 1,
            "COLOR_0": 2
          },
          "indices": 0,
          "mode": 4,
          "targets": [
            {
              "POSITION": 6
            },
            {
              "POSITION": 7
            },
            {
              "POSITION": 8
            },
            {
              "POSITION": 9
            }
          ]
        }
      ],
      "weights": [
        0.0,
        0.0,
        0.0,
        0.0
      ]
    },
    {
      "primitives": [
        {
          "attributes": {
            "POSITION": 4,
            "COLOR_0": 5
          },
          "indices": 3,
          "mode": 4
        }
      ]
    }
  ],
  "nodes": [
    {
      "mesh": 0
    },
    {
      "mesh": 1
    }
  ],
  "scene": 0,
  "scenes": [
    {
      "nodes": [
        0,
        1
      ]
    }
  ]
}